<?xml version="1.0" standalone="no"?><!DOCTYPE svg PUBLIC "-//W3C//DTD SVG 1.1//EN" "http://www.w3.org/Graphics/SVG/1.1/DTD/svg11.dtd"><svg t="1573183208981" class="icon" viewBox="0 0 1024 1024" version="1.1" xmlns="http://www.w3.org/2000/svg" p-id="2774" xmlns:xlink="http://www.w3.org/1999/xlink" width="200" height="200"><defs><style type="text/css"></style></defs><path d="M478.7 417.4H281c-9.2 0-16.5-7.3-16.5-16.5s7.3-16.5 16.5-16.5h197.7c9.2 0 16.5 7.3 16.5 16.5 0 9.3-7.2 16.5-16.5 16.5zM412.8 516.3H281c-9.2 0-16.5-7.2-16.5-16.5 0-9.2 7.3-16.5 16.5-16.5h131.8c9.2 0 16.5 7.3 16.5 16.5s-7.2 16.5-16.5 16.5zM412.8 615.1H281c-9.2 0-16.5-7.3-16.5-16.5s7.3-16.5 16.5-16.5h131.8c9.2 0 16.5 7.3 16.5 16.5 0 9.3-7.2 16.5-16.5 16.5zM478.7 714H281c-9.2 0-16.5-7.3-16.5-16.5S271.8 681 281 681h197.7c9.2 0 16.5 7.3 16.5 16.5 0 9.3-7.2 16.5-16.5 16.5z" fill="#2c2c2c" p-id="2775"></path><path d="M791.8 170.3H495.2c-27.4 0-49.4 22.1-49.4 49.4v49.4H231.6c-27.4 0-49.4 22.1-49.4 49.4v461.4c0 27.4 22.1 49.4 49.4 49.4H627c27.4 0 49.4-22.1 49.4-49.4v-49.4c0-9.2-7.2-16.5-16.5-16.5-9.2 0-16.5 7.3-16.5 16.5v49.4c0 9.2-7.2 16.5-16.5 16.5H231.6c-9.2 0-16.5-7.2-16.5-16.5V318.6c0-9.2 7.3-16.5 16.5-16.5H627c9.2 0 16.5 7.3 16.5 16.5V368c0 9.2 7.3 16.5 16.5 16.5s16.5-7.2 16.5-16.5v-49.4c0-27.4-22.1-49.4-49.4-49.4H478.7v-49.4c0-9.2 7.2-16.5 16.5-16.5h296.6c9.2 0 16.5 7.3 16.5 16.5V368c0 9.2 7.3 16.5 16.5 16.5s16.5-7.2 16.5-16.5V219.7c-0.1-27.4-22.1-49.4-49.5-49.4z" fill="#2c2c2c" p-id="2776"></path><path d="M825.1 582.9l-17.5-12.2c-15.2-10.5-15.2-32.6 0-43.2l17.5-12.2c23.1-16.1 8.2-52.4-19.8-47.5l-20.8 3.6c-18.1 3.3-33.9-12.5-30.6-30.6l3.6-20.8c4.9-27.7-31.3-42.8-47.5-19.8l-12.2 17.5c-10.5 15.2-32.6 15.2-43.2 0l-12.2-17.5c-16.1-23.1-52.4-8.2-47.5 19.8l3.6 20.8c3.3 18.1-12.5 33.9-30.6 30.6l-20.8-3.6c-27.7-4.9-42.8 31.3-19.8 47.5l17.5 12.2c15.2 10.5 15.2 32.6 0 43.2l-17.5 12.2c-23.1 16.1-8.2 52.4 19.8 47.5l20.8-3.6c18.1-3.3 33.9 12.5 30.6 30.6l-3.6 20.8c-4.9 27.7 31.3 42.8 47.5 19.8l12.2-17.5c10.5-15.2 32.6-15.2 43.2 0L710 698c16.1 23.1 52.4 8.2 47.5-19.8l-3.6-20.8c-3.3-18.1 12.5-33.9 30.6-30.6l20.8 3.6c28 5.2 43.2-31.4 19.8-47.5z m-148.6 40.5c-40.9 0-74.1-33.3-74.1-74.1 0-40.9 33.3-74.1 74.1-74.1 40.9 0 74.1 33.3 74.1 74.1s-33.3 74.1-74.1 74.1z" fill="#2c2c2c" p-id="2777"></path></svg>